<svg xmlns="http://www.w3.org/2000/svg" viewBox="0 0 128 128">
  <defs>
    <linearGradient id="ring" x1="18" y1="18" x2="112" y2="112" gradientUnits="userSpaceOnUse">
      <stop offset="0" stop-color="#5ee7f5" />
      <stop offset="0.55" stop-color="#2d7ff9" />
      <stop offset="1" stop-color="#844bff" />
    </linearGradient>
    <linearGradient id="panel" x1="24" y1="24" x2="76" y2="96" gradientUnits="userSpaceOnUse">
      <stop offset="0" stop-color="#0d3f86" />
      <stop offset="1" stop-color="#1d1f5a" />
    </linearGradient>
    <linearGradient id="accent" x1="42" y1="30" x2="84" y2="102" gradientUnits="userSpaceOnUse">
      <stop offset="0" stop-color="#8bf8ff" />
      <stop offset="0.48" stop-color="#4db6ff" />
      <stop offset="1" stop-color="#925bff" />
    </linearGradient>
    <clipPath id="leftHalf">
      <path d="M64 18a46 46 0 1 0 0 92V18Z" />
    </clipPath>
  </defs>
  <circle cx="64" cy="64" r="54" fill="#f8fbff" />
  <circle cx="64" cy="64" r="52" fill="none" stroke="url(#ring)" stroke-width="4.5" />
  <g clip-path="url(#leftHalf)">
    <circle cx="64" cy="64" r="42" fill="url(#panel)" />
    <circle cx="46" cy="44" r="8.5" fill="#ffffff" opacity="0.92" />
    <circle cx="43" cy="70" r="8.5" fill="#ffffff" opacity="0.92" />
    <circle cx="64" cy="30" r="8.5" fill="#ffffff" opacity="0.92" />
    <circle cx="63" cy="98" r="8.5" fill="#ffffff" opacity="0.92" />
  </g>
  <path d="M29 88c8-6.6 11.7-12.8 16.6-26.5c4.7-12.9 11.2-20.7 20-20.7c8.9 0 15.2 5.9 15.2 14.3c0 2.6-.6 5.3-1.6 8.1c5.8 1.5 10.8 4.6 15.5 9.7" fill="none" stroke="url(#accent)" stroke-width="8.5" stroke-linecap="round" stroke-linejoin="round" />
  <path d="M45.5 83.5h33.5" stroke="url(#accent)" stroke-width="6.5" stroke-linecap="round" />
  <path d="M89 47.8h15.5M84.2 60h21.2M80.5 72.5h17M76.5 84h22" fill="none" stroke="#86efff" stroke-width="2.8" stroke-linecap="round" />
  <circle cx="106" cy="47.8" r="3.6" fill="#86efff" />
  <circle cx="108" cy="60" r="3.6" fill="#8f7cff" />
  <circle cx="99.5" cy="72.5" r="3.6" fill="#86efff" />
  <circle cx="100.8" cy="84" r="3.6" fill="#8f7cff" />
  <path d="M64 56.5l2.3 4.5l5 .7l-3.6 3.5l.9 5l-4.6-2.4l-4.6 2.4l.9-5l-3.6-3.5l5-.7Z" fill="#ffffff" opacity="0.95" />
</svg>
